<mxfile host="app.diagrams.net" agent="Mozilla/5.0 (Macintosh; Intel Mac OS X 10_15_7) AppleWebKit/537.36 (KHTML, like Gecko) Chrome/127.0.0.0 Safari/537.36" version="24.7.6">
  <diagram name="ページ1" id="b1TF60Kkk8E0NvJR6qV_">
    <mxGraphModel dx="1434" dy="786" grid="1" gridSize="10" guides="1" tooltips="1" connect="1" arrows="1" fold="1" page="1" pageScale="1" pageWidth="827" pageHeight="1169" math="0" shadow="0">
      <root>
        <mxCell id="0" />
        <mxCell id="1" parent="0" />
        <mxCell id="SltMLzJto1w_wxbyucmZ-18" value="" style="rounded=0;whiteSpace=wrap;html=1;" vertex="1" parent="1">
          <mxGeometry x="40" y="120" width="440" height="360" as="geometry" />
        </mxCell>
        <mxCell id="SltMLzJto1w_wxbyucmZ-7" style="edgeStyle=orthogonalEdgeStyle;rounded=0;orthogonalLoop=1;jettySize=auto;html=1;entryX=0.5;entryY=0;entryDx=0;entryDy=0;" edge="1" parent="1" source="SltMLzJto1w_wxbyucmZ-1" target="SltMLzJto1w_wxbyucmZ-2">
          <mxGeometry relative="1" as="geometry" />
        </mxCell>
        <mxCell id="SltMLzJto1w_wxbyucmZ-1" value="ゲームページ&lt;br&gt;リクエスト" style="rounded=0;whiteSpace=wrap;html=1;" vertex="1" parent="1">
          <mxGeometry x="80" y="160" width="120" height="40" as="geometry" />
        </mxCell>
        <mxCell id="SltMLzJto1w_wxbyucmZ-8" style="edgeStyle=orthogonalEdgeStyle;rounded=0;orthogonalLoop=1;jettySize=auto;html=1;entryX=0.5;entryY=0;entryDx=0;entryDy=0;" edge="1" parent="1" source="SltMLzJto1w_wxbyucmZ-2" target="SltMLzJto1w_wxbyucmZ-3">
          <mxGeometry relative="1" as="geometry" />
        </mxCell>
        <mxCell id="SltMLzJto1w_wxbyucmZ-2" value="サインインセッション&lt;br&gt;チェック" style="rounded=0;whiteSpace=wrap;html=1;" vertex="1" parent="1">
          <mxGeometry x="70" y="240" width="140" height="40" as="geometry" />
        </mxCell>
        <mxCell id="SltMLzJto1w_wxbyucmZ-9" style="edgeStyle=orthogonalEdgeStyle;rounded=0;orthogonalLoop=1;jettySize=auto;html=1;entryX=0;entryY=0.5;entryDx=0;entryDy=0;" edge="1" parent="1" source="SltMLzJto1w_wxbyucmZ-3" target="SltMLzJto1w_wxbyucmZ-4">
          <mxGeometry relative="1" as="geometry" />
        </mxCell>
        <mxCell id="SltMLzJto1w_wxbyucmZ-12" style="edgeStyle=orthogonalEdgeStyle;rounded=0;orthogonalLoop=1;jettySize=auto;html=1;entryX=0.5;entryY=0;entryDx=0;entryDy=0;" edge="1" parent="1" source="SltMLzJto1w_wxbyucmZ-3" target="SltMLzJto1w_wxbyucmZ-6">
          <mxGeometry relative="1" as="geometry" />
        </mxCell>
        <mxCell id="SltMLzJto1w_wxbyucmZ-3" value="" style="rhombus;whiteSpace=wrap;html=1;" vertex="1" parent="1">
          <mxGeometry x="120" y="320" width="40" height="40" as="geometry" />
        </mxCell>
        <mxCell id="SltMLzJto1w_wxbyucmZ-10" style="edgeStyle=orthogonalEdgeStyle;rounded=0;orthogonalLoop=1;jettySize=auto;html=1;entryX=0.5;entryY=0;entryDx=0;entryDy=0;" edge="1" parent="1" source="SltMLzJto1w_wxbyucmZ-4" target="SltMLzJto1w_wxbyucmZ-5">
          <mxGeometry relative="1" as="geometry" />
        </mxCell>
        <mxCell id="SltMLzJto1w_wxbyucmZ-4" value="サインインページ&lt;br&gt;表示" style="rounded=0;whiteSpace=wrap;html=1;" vertex="1" parent="1">
          <mxGeometry x="280" y="320" width="120" height="40" as="geometry" />
        </mxCell>
        <mxCell id="SltMLzJto1w_wxbyucmZ-15" style="edgeStyle=orthogonalEdgeStyle;rounded=0;orthogonalLoop=1;jettySize=auto;html=1;entryX=1;entryY=0.5;entryDx=0;entryDy=0;" edge="1" parent="1" source="SltMLzJto1w_wxbyucmZ-5" target="SltMLzJto1w_wxbyucmZ-1">
          <mxGeometry relative="1" as="geometry">
            <mxPoint x="320" y="520" as="targetPoint" />
            <Array as="points">
              <mxPoint x="440" y="420" />
              <mxPoint x="440" y="180" />
            </Array>
          </mxGeometry>
        </mxCell>
        <mxCell id="SltMLzJto1w_wxbyucmZ-5" value="サインインボタン&lt;br&gt;クリック" style="rounded=0;whiteSpace=wrap;html=1;" vertex="1" parent="1">
          <mxGeometry x="280" y="400" width="120" height="40" as="geometry" />
        </mxCell>
        <mxCell id="SltMLzJto1w_wxbyucmZ-6" value="ゲームページ&lt;br&gt;表示" style="rounded=0;whiteSpace=wrap;html=1;" vertex="1" parent="1">
          <mxGeometry x="80" y="400" width="120" height="40" as="geometry" />
        </mxCell>
        <mxCell id="SltMLzJto1w_wxbyucmZ-13" value="サインイン済" style="text;html=1;align=center;verticalAlign=middle;whiteSpace=wrap;rounded=0;" vertex="1" parent="1">
          <mxGeometry x="160" y="320" width="120" height="20" as="geometry" />
        </mxCell>
        <mxCell id="SltMLzJto1w_wxbyucmZ-14" value="未サインイン" style="text;html=1;align=center;verticalAlign=middle;whiteSpace=wrap;rounded=0;" vertex="1" parent="1">
          <mxGeometry x="140" y="360" width="90" height="20" as="geometry" />
        </mxCell>
        <mxCell id="SltMLzJto1w_wxbyucmZ-16" value="ゲストサインイン" style="text;html=1;align=center;verticalAlign=middle;whiteSpace=wrap;rounded=0;" vertex="1" parent="1">
          <mxGeometry x="330" y="180" width="110" height="20" as="geometry" />
        </mxCell>
      </root>
    </mxGraphModel>
  </diagram>
</mxfile>
